<?xml version="1.0" standalone="no"?><!DOCTYPE svg PUBLIC "-//W3C//DTD SVG 1.1//EN" "http://www.w3.org/Graphics/SVG/1.1/DTD/svg11.dtd"><svg class="icon" width="200px" height="200.00px" viewBox="0 0 1024 1024" version="1.1" xmlns="http://www.w3.org/2000/svg"><path d="M512 192.8c70.4 0 128 57.6 128 128s-57.6 128-128 128c-36 0-68.8-14.4-93.6-40.8-24.8-26.4-36.8-60-34.4-96 4-63.2 56.8-115.2 120-118.4 2.4-0.8 4.8-0.8 8-0.8M512 640c53.6 0 140.8 13.6 216 43.2 64 25.6 104 57.6 104 84v64.8H192v-64.8c0-26.4 40-58.4 104-84 75.2-29.6 162.4-43.2 216-43.2m0-511.2h-11.2c-96 5.6-174.4 83.2-180.8 178.4-7.2 112 80.8 204.8 191.2 204.8 105.6 0 192-86.4 192-192S617.6 128.8 512 128.8zM512 576c-128 0-384 64-384 191.2v96c0 17.6 14.4 32 32 32h704c17.6 0 32-14.4 32-32V766.4C896 640 640 576 512 576z" fill="#515151" /></svg>