<svg viewBox="-50 -50 100 100" style="background-color: transparent;" xmlns="http://www.w3.org/2000/svg">
  <rect x="-48" y="-48" width="96" height="96" rx="15" fill="none"/>
  <line x1="0" y1="0" x2="0" y2="-25" stroke-width="6.5" transform="rotate(0 0 0)" stroke="rgb(68,92,112)"/>
  <circle cx="0" cy="-35" r="9" fill="rgb(2,31,54)" transform="rotate(0 0 0)" stroke-width="5.5" stroke="rgb(68,92,112)"/>
  <line x1="0" y1="0" x2="0" y2="-25" stroke-width="6.5" transform="rotate(60 0 0)" stroke="rgb(68,92,112)"/>
  <circle cx="0" cy="-35" r="9" fill="white" transform="rotate(60 0 0)" stroke-width="5.5" stroke="rgb(68,92,112)"/>
  <line x1="0" y1="0" x2="0" y2="-25" stroke-width="6.5" transform="rotate(120 0 0)" stroke="rgb(68,92,112)"/>
  <circle cx="0" cy="-35" r="9" fill="rgb(2,31,54)" transform="rotate(120 0 0)" stroke-width="5.5" stroke="rgb(68,92,112)"/>
  <line x1="0" y1="0" x2="0" y2="-25" stroke-width="6.5" transform="rotate(180 0 0)" stroke="rgb(68,92,112)"/>
  <circle cx="0" cy="-35" r="9" fill="white" transform="rotate(180 0 0)" stroke-width="5.5" stroke="rgb(68,92,112)"/>
  <line x1="0" y1="0" x2="0" y2="-25" stroke-width="6.5" transform="rotate(240 0 0)" stroke="rgb(68,92,112)"/>
  <circle cx="0" cy="-35" r="9" fill="rgb(2,31,54)" transform="rotate(240 0 0)" stroke-width="5.5" stroke="rgb(68,92,112)"/>
  <line x1="0" y1="0" x2="0" y2="-25" stroke-width="6.5" transform="rotate(300 0 0)" stroke="rgb(68,92,112)"/>
  <circle cx="0" cy="-35" r="9" fill="white" transform="rotate(300 0 0)" stroke-width="5.5" stroke="rgb(68,92,112)"/>

  <circle cx="0" cy="0" r="11" fill="white" stransform="rotate(0 0 0)" stroke-width="6.5" stroke="rgb(68,92,112)"/>
</svg>

