<svg xmlns="http://www.w3.org/2000/svg">
  <defs>
    <symbol id="android" viewBox="0 0 36 24">
      <path d="M26.2078 8.72482L29.0185 3.85587C29.1771 3.58292 29.0812 3.23621 28.8119 3.07759C28.5427 2.91901 28.1922 3.01123 28.0373 3.28415L25.1897 8.21578C23.0172 7.22356 20.5716 6.67026 17.9417 6.67026C15.3117 6.67026 12.8662 7.22356 10.6936 8.21578L7.84602 3.28415C7.68742 3.0112 7.34068 2.919 7.06773 3.07759C6.79477 3.23616 6.70256 3.58292 6.86116 3.85587L9.67186 8.72482C4.82506 11.3511 1.54223 16.2569 1 22H34.8833C34.3411 16.2569 31.0583 11.3511 26.2078 8.72482H26.2078ZM10.1625 17.2418C9.37679 17.2418 8.74235 16.6036 8.74235 15.8216C8.74235 15.036 9.38048 14.4015 10.1625 14.4015C10.9481 14.4015 11.5826 15.0397 11.5826 15.8216C11.5864 16.6036 10.9481 17.2418 10.1625 17.2418ZM25.7172 17.2418C24.9315 17.2418 24.2971 16.6036 24.2971 15.8216C24.2971 15.036 24.9352 14.4015 25.7172 14.4015C26.5029 14.4015 27.1373 15.0397 27.1373 15.8216C27.1412 16.6036 26.5029 17.2418 25.7172 17.2418Z" fill="currentColor"/>
    </symbol>
    <symbol id="windows" viewBox="0 0 36 24">
      <path d="M6.5 3.27934L15.9055 1.99281V11.051H6.5V3.27934ZM17.0384 1.81427L29.5 0V10.9749H17.0384V1.81427ZM6.5 12.0094H15.9055V21.0938L6.5 19.7811V12.0094ZM17.0384 12.1301H29.5V23L17.0384 21.2409" fill="currentColor"/>
    </symbol>
    <symbol id="linux" viewBox="0 0 36 24">
      <path fill-rule="evenodd" clip-rule="evenodd" d="M6 3.5C6 2.67157 6.67157 2 7.5 2H27.5C28.3284 2 29 2.67157 29 3.5V20.5C29 21.3284 28.3284 22 27.5 22H7.5C6.67157 22 6 21.3284 6 20.5V3.5ZM8.96967 4.96967C9.26256 4.67678 9.73744 4.67678 10.0303 4.96967L13.5303 8.46967C13.8232 8.76256 13.8232 9.23744 13.5303 9.53033L10.0303 13.0303C9.73744 13.3232 9.26256 13.3232 8.96967 13.0303C8.67678 12.7374 8.67678 12.2626 8.96967 11.9697L11.9393 9L8.96967 6.03033C8.67678 5.73744 8.67678 5.26256 8.96967 4.96967ZM13 15.2C12.5582 15.2 12.2 15.5582 12.2 16C12.2 16.4418 12.5582 16.8 13 16.8H20.5C20.9418 16.8 21.3 16.4418 21.3 16C21.3 15.5582 20.9418 15.2 20.5 15.2H13Z" fill="currentColor"/>
    </symbol>
    <symbol id="apple" viewBox="0 0 36 24">
      <path fill-rule="evenodd" clip-rule="evenodd" d="M18.7954 2.08851C20.3723 0.0101142 22.5646 0 22.5646 0C22.5646 0 22.8906 1.95403 21.3241 3.8364C19.6514 5.8464 17.7501 5.51751 17.7501 5.51751C17.7501 5.51751 17.3931 3.93677 18.7954 2.08851V2.08851ZM17.9507 6.88629C18.7619 6.88629 20.2675 5.77114 22.2273 5.77114C25.6007 5.77114 26.9279 8.17157 26.9279 8.17157C26.9279 8.17157 24.3323 9.4986 24.3323 12.7186C24.3323 16.3511 27.5657 17.6031 27.5657 17.6031C27.5657 17.6031 25.3054 23.9648 22.2524 23.9648C20.8502 23.9648 19.7601 23.0199 18.2826 23.0199C16.7771 23.0199 15.283 24 14.3098 24C11.522 24.0001 8 17.9653 8 13.1144C8 8.34171 10.9811 5.838 13.7773 5.838C15.5951 5.838 17.0057 6.88629 17.9507 6.88629V6.88629Z" fill="currentColor"/>
    </symbol>
    <symbol id="macos" viewBox="0 0 36 24">
      <path fill-rule="evenodd" clip-rule="evenodd" d="M15.8794 12.7011C16.0168 10.3047 17.0395 6.40098 19.2618 2H8C6.89543 2 6 2.89543 6 4V20C6 21.1046 6.89543 22 8 22H19.3675C19.1836 20.8126 19.1204 19.6274 19.1251 18.5173C18.6765 18.5758 18.2212 18.6074 17.7647 18.6074C16.1518 18.6074 14.553 18.2135 13.2161 17.6272C11.8949 17.0477 10.7514 16.2451 10.1175 15.3648C9.88356 15.0399 9.95732 14.5868 10.2823 14.3528C10.6072 14.1189 11.0603 14.1926 11.2942 14.5176C11.7192 15.1078 12.6052 15.7759 13.7986 16.2993C14.9764 16.8159 16.3776 17.1574 17.7647 17.1574C18.2344 17.1574 18.7057 17.1182 19.1695 17.0463C19.2362 15.825 19.3653 14.7574 19.4682 13.9668H17.0882C16.4229 13.9668 15.8383 13.4198 15.8794 12.7011ZM20.578 18.2311C21.1884 18.0702 21.7723 17.8645 22.3133 17.6272C23.6346 17.0477 24.7781 16.2451 25.4119 15.3648C25.6459 15.0399 25.5721 14.5868 25.2472 14.3528C24.9222 14.1189 24.4691 14.1926 24.2352 14.5176C23.8102 15.1078 22.9243 15.7759 21.7309 16.2993C21.3857 16.4507 21.0213 16.587 20.6438 16.7041C20.7199 15.5944 20.844 14.6233 20.9397 13.8982C21.0365 13.164 20.4648 12.5168 19.7277 12.5168H17.346C17.5383 10.2196 18.5895 6.37024 20.8934 2H28C29.1046 2 30 2.89543 30 4V20C30 21.1046 29.1046 22 28 22H20.8358C20.6199 20.723 20.5588 19.4319 20.578 18.2311ZM12.5 6.275C12.9004 6.275 13.225 6.59959 13.225 7V9.35294C13.225 9.75335 12.9004 10.0779 12.5 10.0779C12.0996 10.0779 11.775 9.75335 11.775 9.35294V7C11.775 6.59959 12.0996 6.275 12.5 6.275ZM24.225 7C24.225 6.59959 23.9004 6.275 23.5 6.275C23.0996 6.275 22.775 6.59959 22.775 7V9.35294C22.775 9.75335 23.0996 10.0779 23.5 10.0779C23.9004 10.0779 24.225 9.75335 24.225 9.35294V7Z" fill="currentColor"/>
    </symbol>
    <symbol id="raspberry-pi" viewBox="0 0 36 24">
      <path fill-rule="evenodd" clip-rule="evenodd" d="M13.3068 1.00025C13.5321 0.993382 13.7236 1.12823 13.9318 1.19307C14.4401 1.02959 14.5559 1.25357 14.8054 1.34471C15.3475 1.23195 15.5203 1.46982 15.7766 1.72838L15.7937 1.74546L16.1026 1.73944C16.9379 2.22431 17.3521 3.21192 17.4993 3.7197C17.6465 3.21203 18.0615 2.22442 18.8971 1.73944L19.206 1.74546C19.4716 1.48044 19.6399 1.22947 20.194 1.34471C20.4435 1.25357 20.5597 1.02959 21.0676 1.19307C21.3847 1.09429 21.6623 0.832873 22.0819 1.15898C22.4353 1.02476 22.7779 0.978119 23.0842 1.25138C23.5572 1.19092 23.7109 1.31563 23.8274 1.46121C23.9314 1.45913 24.6045 1.35611 24.9131 1.80974C25.6893 1.71931 25.9343 2.25922 25.6566 2.76266C25.8149 3.00432 25.9794 3.243 25.6087 3.70347C25.7398 3.96002 25.6585 4.23829 25.3498 4.57517C25.4312 4.93574 25.271 5.19021 24.9837 5.38849C25.0375 5.88205 24.5243 6.16905 24.371 6.27125C24.3122 6.55877 24.1895 6.83014 23.6032 6.98025C23.5066 7.40878 23.1543 7.48279 22.8131 7.5727C23.9407 8.21849 24.9077 9.06791 24.9012 11.1519L25.0665 11.4421C26.3595 12.2166 27.5228 14.7059 25.7037 16.7293C25.585 17.3627 25.3856 17.8175 25.2082 18.321C24.9428 20.3497 23.211 21.2997 22.7542 21.412C22.0848 21.9142 21.3719 22.3907 20.4072 22.7246C19.4978 23.6484 18.5126 24.0005 17.5219 24H17.4781C16.4874 24.0004 15.5022 23.6484 14.5928 22.7246C13.6281 22.3907 12.9152 21.9142 12.2458 21.412C11.789 21.2997 10.0571 20.3497 9.79176 18.321C9.61431 17.8175 9.41507 17.3627 9.29623 16.7293C7.47722 14.7061 8.64049 12.2169 9.93336 11.4425L10.0986 11.1522C10.0921 9.06802 11.059 8.2186 12.1866 7.57296C11.8454 7.48305 11.4931 7.40908 11.3964 6.98047C10.8102 6.83043 10.6876 6.55907 10.6287 6.27155C10.4755 6.16927 9.96226 5.88231 10.016 5.38882C9.72874 5.1905 9.56849 4.93607 9.65 4.57543C9.3412 4.23859 9.25995 3.96028 9.391 3.70373C9.02052 3.24315 9.18463 3.00443 9.3431 2.76277C9.06523 2.25933 9.31049 1.71939 10.0864 1.80978C10.3951 1.35618 11.0684 1.45916 11.1722 1.46128C11.2887 1.31566 11.4424 1.19096 11.9154 1.25142C12.2218 0.97823 12.5643 1.02484 12.9177 1.15909C13.0619 1.04694 13.1887 1.00382 13.3068 1.00025ZM20.14 21.6909C20.1372 21.1811 18.6372 20.9541 17.5705 21C16.5104 20.9739 14.9532 21.261 14.973 21.8304C14.9561 22.2186 16.2493 23.3389 17.5683 23.2829C18.8418 23.3044 20.1577 22.1859 20.14 21.6909ZM23.9836 16.3403C23.2832 15.8068 22.4403 16.6487 21.5 17.6945C20.6783 18.6428 20.0583 20.2128 20.6578 20.7697C21.231 21.2023 22.7696 21.1418 23.9062 19.5885C24.7315 18.5453 24.4549 16.803 23.9836 16.3403ZM13.5 18C12.6284 17.0039 11.6872 16.2312 10.9543 16.671C10.4641 17.0383 10.3743 18.2889 11.0722 19.5177C12.1072 20.9823 13.5634 21.1291 14.1631 20.7727C14.7968 20.306 14.2594 18.9013 13.5 18ZM17.5528 15.2464C16.1857 15.253 15 16.2706 15 17.6945C15.0078 19.0265 16.104 20.1005 17.5705 20.0935C19.0369 20.0865 20.131 19.0028 20.1233 17.6709C20.1233 16.2668 18.9169 15.2399 17.5528 15.2464ZM10.0752 16.3653C11.0417 16.7882 11.8285 11.6341 10.6407 11.9477C8.66953 13.0564 9.01198 15.523 10.0752 16.3653ZM24.3683 11.8834C23.1804 11.5699 23.9673 16.7242 24.9339 16.3013C25.997 15.459 26.3394 12.9921 24.3683 11.8834ZM16.0716 10.9242C14.9714 10.2142 13.3859 10.6724 12.5303 11.9477C11.6747 13.223 11.8731 14.5345 12.9733 15.2446C14.0735 15.9546 15.6591 15.4963 16.5147 14.221C17.3702 12.9458 17.1719 11.6342 16.0716 10.9242ZM22.5827 11.9477C21.7271 10.6724 20.1416 10.2142 19.0413 10.9242C17.941 11.6342 17.7427 12.8405 18.5983 14.1157C19.4539 15.391 21.0394 15.8493 22.1396 15.1393C23.2399 14.4293 23.4382 13.223 22.5827 11.9477ZM24.0712 11.086C24.1401 8.89644 22.4343 7.69682 20.3843 8.03778C19.629 8.16275 24.0038 11.9255 24.0712 11.086ZM14.7202 7.97349C12.6701 7.63253 10.9645 8.83245 11.0333 11.0218C11.1007 11.8612 15.4755 8.0985 14.7202 7.97349ZM17.5445 7.46289C16.321 7.43154 15.1468 8.35731 15.1439 8.89429C15.1405 9.54676 16.1289 9.98303 17.5705 10C19.0427 10.0104 19.9643 9.69706 19.9691 9.02368C19.9745 8.26076 18.6302 7.45115 17.5445 7.46289ZM21.7089 1.58298C21.2846 1.73773 21.066 1.93757 20.8359 2.13489C20.7579 2.03116 20.6378 1.95518 20.7828 1.7049C20.4815 1.876 20.2546 2.07758 20.0868 2.30334C19.9004 2.18643 19.9758 2.02659 19.9747 1.87927C19.6616 2.13009 19.4629 2.39708 19.2197 2.65775C19.1707 2.62262 19.1279 2.5034 19.0899 2.31497C18.343 3.02872 17.2875 4.82659 18.8186 5.53941C20.1208 4.4808 21.6767 3.71149 23.4011 3.13437C21.1848 4.26013 19.8962 5.17041 19.1902 5.94607C19.5518 7.37346 21.438 7.43864 22.1277 7.39857C21.9864 7.33383 21.8686 7.25625 21.8269 7.13712C21.9999 7.01605 22.6136 7.12434 23.0419 6.88729C22.8774 6.85368 22.8004 6.82104 22.7235 6.70138C23.1282 6.57426 23.5642 6.46466 23.8206 6.25402C23.6822 6.25576 23.553 6.28451 23.3723 6.16106C23.7348 5.96861 24.1217 5.81616 24.4222 5.522C24.2347 5.51754 24.0327 5.52014 23.9739 5.45229C24.3057 5.24985 24.5857 5.02465 24.8174 4.77835C24.5551 4.80955 24.4444 4.78269 24.3809 4.73768C24.6318 4.4847 24.9492 4.27101 25.1006 3.95917C24.9058 4.02531 24.7276 4.05064 24.5992 3.95337C24.6844 3.76393 25.0495 3.65226 25.2598 3.20969C25.0547 3.22926 24.8373 3.25373 24.7938 3.20969C24.8891 2.82765 25.0525 2.61296 25.2125 2.39047C24.7738 2.38408 24.109 2.39218 24.139 2.35563L24.4104 2.0826C23.9818 1.96892 23.5432 2.10079 23.2248 2.19876C23.0819 2.08765 23.2273 1.94712 23.4017 1.80373C23.0375 1.8516 22.7083 1.93408 22.4108 2.04772C22.2518 1.90638 22.514 1.76499 22.6408 1.62361C22.0949 1.72564 21.8542 1.86774 21.6239 2.01123L21.6027 2.02447C21.4308 1.86218 21.5929 1.72422 21.7089 1.58298ZM13.3533 1.58313C13.4693 1.7244 13.6314 1.86233 13.4595 2.02466C13.2226 1.87663 12.9841 1.7289 12.4213 1.62376C12.5482 1.7651 12.8104 1.90649 12.6514 2.04791C12.3539 1.93427 12.0247 1.85178 11.6605 1.8038C11.8349 1.9473 11.9804 2.08783 11.8375 2.19895C11.519 2.10098 11.0804 1.96907 10.6519 2.08271L10.9232 2.35578C10.9532 2.39236 10.2884 2.38427 9.84962 2.39065C10.0098 2.61311 10.1731 2.82784 10.2683 3.20969C10.2247 3.25373 10.0073 3.22926 9.80223 3.20969C10.0125 3.65226 10.3776 3.76393 10.4629 3.95337C10.3345 4.05064 10.1563 4.02531 9.96151 3.95917C10.1129 4.27101 10.4303 4.4847 10.6811 4.73768C10.6177 4.78269 10.507 4.80955 10.2446 4.77835C10.4764 5.02465 10.7563 5.24985 11.0881 5.45229C11.0293 5.52014 10.8273 5.51754 10.6399 5.522C10.9404 5.81616 11.3272 5.96861 11.6898 6.16106C11.509 6.28451 11.3799 6.25576 11.2415 6.25402C11.4979 6.46466 11.9339 6.57426 12.3386 6.70138C12.2616 6.82104 12.1846 6.85368 12.0201 6.88729C12.4485 7.12434 13.0621 7.01605 13.2352 7.13712C13.1934 7.25625 13.0756 7.33383 12.9344 7.39857C13.624 7.43864 15.5102 7.37346 15.8718 5.94607C15.166 5.17086 13.878 4.26054 11.6628 3.13549C13.3861 3.71253 14.9413 4.48166 16.2436 5.53956C17.7746 4.82674 16.7192 3.0289 15.9723 2.31511C15.9344 2.50359 15.8915 2.6228 15.8425 2.6579C15.5993 2.39723 15.4006 2.13028 15.0875 1.87938C15.0865 2.0267 15.1618 2.18658 14.9754 2.30353C14.8075 2.07769 14.5806 1.87615 14.2794 1.70509C14.4245 1.95532 14.3043 2.03131 14.2263 2.13503C13.9962 1.93772 13.7776 1.73792 13.3533 1.58313Z" fill="currentColor"/>
    </symbol>
    <symbol id="synology" viewBox="0 0 36 24">
      <path fill-rule="evenodd" clip-rule="evenodd" d="M9 2C7.34315 2 6 3.34315 6 5V19C6 20.6569 7.34315 22 9 22H28C29.6569 22 31 20.6569 31 19V5C31 3.34315 29.6569 2 28 2H9ZM17 5C16.4477 5 16 5.44772 16 6V18C16 18.5523 16.4477 19 17 19H20C20.5523 19 21 18.5523 21 18V6C21 5.44772 20.5523 5 20 5H17ZM23 6C23 5.44772 23.4477 5 24 5H27C27.5523 5 28 5.44772 28 6V18C28 18.5523 27.5523 19 27 19H24C23.4477 19 23 18.5523 23 18V6ZM10 7C9.44772 7 9 7.44772 9 8C9 8.55228 9.44772 9 10 9H13C13.5523 9 14 8.55228 14 8C14 7.44772 13.5523 7 13 7H10ZM20 8.5C20 9.32843 19.3284 10 18.5 10C17.6716 10 17 9.32843 17 8.5C17 7.67157 17.6716 7 18.5 7C19.3284 7 20 7.67157 20 8.5ZM25.5 10C26.3284 10 27 9.32843 27 8.5C27 7.67157 26.3284 7 25.5 7C24.6716 7 24 7.67157 24 8.5C24 9.32843 24.6716 10 25.5 10Z" fill="currentColor"/>
    </symbol>
  </defs>
</svg>
